<svg xmlns="http://www.w3.org/2000/svg" viewBox="0 0 200 200"><defs><style>.cls-1{fill:#cc0202;}.cls-2{fill:#fff;}</style></defs><title>Logo-MinTax-Beta</title><g id="Layer_2" data-name="Layer 2"><g id="Layer_1-2" data-name="Layer 1"><rect class="cls-1" width="200" height="200" rx="45"/><polygon class="cls-2" points="151.19 67.51 141.66 73.01 138.31 74.95 135.22 76.73 131.86 78.67 122.33 84.17 118.98 86.11 118.97 86.11 115.89 87.89 112.53 89.83 103 95.33 99.65 97.27 96.56 99.05 96.56 162.75 86.76 157.09 83.68 155.31 83.68 91.61 86.77 89.83 96.56 84.17 99.65 82.39 103 80.45 106.09 78.67 115.89 73.01 118.98 71.23 122.33 69.29 125.42 67.51 122.33 65.73 118.98 63.79 115.89 65.57 112.53 67.51 103 73.01 99.65 74.95 96.56 76.73 93.21 78.67 93.2 78.67 83.68 84.17 80.32 86.11 77.23 87.89 77.23 151.59 67.17 145.78 64.35 144.15 64.35 80.45 67.44 78.67 77.23 73.01 80.32 71.23 83.68 69.29 86.76 67.51 96.56 61.85 99.65 60.07 103 58.13 106.09 56.35 103 54.57 99.65 52.63 96.56 54.41 93.21 56.35 83.68 61.85 80.32 63.79 77.23 65.57 73.88 67.51 64.35 73.01 60.99 74.95 57.64 76.89 57.64 140.28 47.84 134.62 44.75 132.84 44.75 69.45 48.11 67.51 57.64 62.01 60.99 60.07 64.35 58.13 67.44 56.35 77.23 50.69 80.32 48.91 83.68 46.98 86.76 45.19 96.56 39.53 99.65 37.75 103 39.69 112.53 45.19 115.89 47.13 118.98 48.91 122.33 50.85 131.86 56.35 135.22 58.29 138.31 60.07 141.66 62.01 151.19 67.51"/><polygon class="cls-2" points="154.55 73.01 154.55 87.89 151.19 89.83 141.66 95.33 138.31 97.27 135.22 99.05 135.22 144 132.13 145.78 122.33 151.44 122.33 106.49 118.98 108.42 118.98 108.42 115.89 110.21 112.53 112.15 103 117.65 103 102.77 106.09 100.99 115.89 95.33 118.98 93.55 122.33 91.61 125.42 89.83 135.22 84.17 138.31 82.39 141.66 80.45 144.75 78.67 154.55 73.01"/><path class="cls-2" d="M137.63,37.82h3.83c2.71,0,4.23,1.15,4.23,3.4a2.59,2.59,0,0,1-1.33,2.36,2.86,2.86,0,0,1,1.76,2.79c0,2.4-1.68,3.6-4.36,3.6h-4.13Zm2.27,2.08v2.76h1.56c1.45,0,1.95-.58,1.95-1.44s-.55-1.32-1.95-1.32Zm0,4.88v3.11h1.86c1.38,0,2.08-.57,2.08-1.57s-.5-1.54-2.18-1.54Z"/><path class="cls-2" d="M146.8,45.13A5,5,0,0,1,151.86,40a4.86,4.86,0,0,1,5,5v.85H149a2.87,2.87,0,0,0,3,2.3,2.84,2.84,0,0,0,2.7-1.72l1.84,1.07a4.86,4.86,0,0,1-4.54,2.63A4.94,4.94,0,0,1,146.8,45.13ZM149.06,44h5.53a2.58,2.58,0,0,0-2.73-2A2.86,2.86,0,0,0,149.06,44Z"/><path class="cls-2" d="M157.1,40.24h1.66V38.75L161,37.21v3h2v2h-2v3.64c0,1.7.25,2,2,2V50h-.31c-3,0-3.93-1-3.93-4.06V42.25H157.1Z"/><path class="cls-2" d="M163.43,45.11A4.82,4.82,0,0,1,168.26,40a4.05,4.05,0,0,1,3.13,1.36V40.24h2.24V50h-2.24V48.7a4,4,0,0,1-3.16,1.47A4.87,4.87,0,0,1,163.43,45.11Zm8.07,0a2.9,2.9,0,0,0-2.91-3,3,3,0,1,0,2.91,3Z"/></g></g></svg>