<svg xmlns="http://www.w3.org/2000/svg" xmlns:xlink="http://www.w3.org/1999/xlink" id="svgh" width="20" height="20" viewBox="0 0 20 20">
  <defs>
    <style>
      .cls-1 {
        fill: none;
      }

      .cls-2 {
        clip-path: url(#clip-path);
      }

      .cls-3 {
        fill: #6f6f6f;
      }
    </style>
    <clipPath id="clip-path">
      <rect id="SVGID" class="cls-1" width="20" height="20" transform="translate(2 2)"/>
    </clipPath>
  </defs>
  <g id="Group_17853" data-name="Group 17853" transform="translate(-2 -2)">
    <g id="Group_17852" data-name="Group 17852" class="cls-2">
      <path id="Path_31915" data-name="Path 31915" class="cls-3" d="M19.147,10.292l-1.153-.251a6.217,6.217,0,0,0-.371-.894l.638-.993a.448.448,0,0,0-.06-.559l-1.8-1.8a.448.448,0,0,0-.559-.06l-.993.638a6.217,6.217,0,0,0-.894-.371l-.251-1.153A.448.448,0,0,0,13.27,4.5H10.73a.448.448,0,0,0-.438.353l-.251,1.153a6.217,6.217,0,0,0-.894.371l-.993-.638a.448.448,0,0,0-.559.06l-1.8,1.8a.448.448,0,0,0-.06.559l.638.993a6.217,6.217,0,0,0-.371.894l-1.153.251a.448.448,0,0,0-.353.438v2.54a.448.448,0,0,0,.353.438l1.153.251a6.217,6.217,0,0,0,.371.894l-.638.993a.448.448,0,0,0,.06.559l1.8,1.8a.448.448,0,0,0,.559.06l.993-.638a6.217,6.217,0,0,0,.894.371l.251,1.153a.448.448,0,0,0,.438.353h2.54a.448.448,0,0,0,.438-.353l.251-1.153a6.217,6.217,0,0,0,.894-.371l.993.638a.448.448,0,0,0,.559-.06l1.8-1.8a.448.448,0,0,0,.06-.559l-.638-.993a6.217,6.217,0,0,0,.371-.894l1.153-.251a.448.448,0,0,0,.353-.438V10.73A.448.448,0,0,0,19.147,10.292ZM14.689,12A2.689,2.689,0,1,1,12,9.311,2.692,2.692,0,0,1,14.689,12Z"/>
    </g>
  </g>
</svg>
